<svg xmlns="http://www.w3.org/2000/svg" width="600" height="362" viewBox="0 0 600 362" version="1.1"><path d="M 199.718 152.092 C 192.018 153.905, 183 160.424, 183 164.177 C 183 170.769, 205.754 164.023, 209.226 156.402 C 210.254 154.148, 210.154 153.586, 208.519 152.390 C 206.400 150.841, 205.202 150.800, 199.718 152.092" stroke="none" fill="#f4b8e4" fill-rule="evenodd"/><path d="M 220.974 71.250 C 217.972 72.768, 215.588 75.029, 213.650 78.198 L 210.776 82.897 214.339 91.198 C 224.927 115.873, 224.125 135.646, 212.091 146.604 C 208.787 149.613, 208.733 149.781, 210.341 152.077 C 212.560 155.245, 212.444 156.319, 209.500 159.818 C 205.427 164.658, 206.054 165.255, 214.790 164.856 C 223.697 164.449, 225.999 163.103, 232.495 154.500 C 237.708 147.597, 241.040 140.015, 241.708 133.536 C 242.860 122.376, 237.976 108.269, 229.943 99.554 C 227.774 97.201, 226 95, 226 94.663 C 226 94.326, 227.350 94.320, 229 94.650 C 231.318 95.114, 232 94.892, 232 93.675 C 232 92.808, 231.267 91.689, 230.371 91.188 C 229.475 90.686, 228.959 89.651, 229.224 88.888 C 229.560 87.921, 230.773 88.654, 233.222 91.302 C 236.161 94.481, 237.174 94.994, 239.404 94.435 C 242.368 93.691, 245 89.497, 245 85.518 C 245 78.911, 239.301 72.011, 232.219 70.044 C 227.011 68.598, 226.006 68.706, 220.974 71.250 M 229.177 75.553 C 229.629 77.725, 231.404 77.858, 231.810 75.750 C 232.020 74.655, 231.530 74, 230.500 74 C 229.539 74, 228.988 74.647, 229.177 75.553 M 217.510 79.984 C 216.773 81.177, 217.709 83, 219.059 83 C 220.276 83, 220.284 80.293, 219.069 79.543 C 218.557 79.226, 217.856 79.425, 217.510 79.984 M 237.446 81.087 C 236.416 82.755, 238.733 84.667, 240.113 83.287 C 241.267 82.133, 240.545 80, 239 80 C 238.515 80, 237.816 80.489, 237.446 81.087 M 89.684 120.416 C 83.484 122.680, 80.090 126.037, 76.455 133.500 C 73.194 140.195, 73.262 144.970, 76.677 149.028 C 79.253 152.089, 79.595 152.195, 85.645 151.810 C 93.866 151.286, 97.267 148.523, 96.396 143.075 C 95.930 140.161, 96.249 139.093, 98.063 137.486 L 100.305 135.500 99.685 138.711 C 98.933 142.606, 100.328 143.798, 102.316 140.959 C 103.634 139.077, 103.805 139.848, 104.154 149.284 C 104.510 158.912, 104.818 160.248, 108.315 167.324 C 111.235 173.231, 113.386 176.026, 117.796 179.639 C 140.090 197.906, 173.248 195.712, 193.941 174.601 C 199.646 168.781, 200.088 167.256, 195.574 168.972 C 191.096 170.674, 184.874 170.230, 182.544 168.041 C 180.470 166.093, 180.419 166.096, 173.684 168.541 C 162.459 172.615, 148.531 171.561, 138.168 165.854 C 134.940 164.076, 130.870 161.112, 124.655 156.014 C 120.266 152.414, 111.555 139.952, 107.539 131.528 C 105.145 126.508, 102.583 121.900, 101.844 121.290 C 99.525 119.373, 93.689 118.954, 89.684 120.416 M 94 125.583 C 94 126.454, 94.534 126.989, 95.188 126.771 C 97.042 126.153, 97.349 124, 95.583 124 C 94.713 124, 94 124.713, 94 125.583 M 83.250 131.250 C 83.479 131.938, 84.267 132.500, 85 132.500 C 85.733 132.500, 86.521 131.938, 86.750 131.250 C 86.998 130.506, 86.289 130, 85 130 C 83.711 130, 83.002 130.506, 83.250 131.250 M 78.667 142.667 C 77.516 143.817, 77.938 145, 79.500 145 C 80.325 145, 81 144.325, 81 143.500 C 81 141.938, 79.817 141.516, 78.667 142.667" stroke="none" fill="#e5c890" fill-rule="evenodd"/><path d="M 211.500 131.616 C 209.850 132.460, 206.656 135.206, 204.401 137.717 C 200.931 141.582, 199.704 142.298, 196.401 142.391 C 192.535 142.499, 192.500 142.536, 192.500 146.500 C 192.500 149.547, 192.857 150.415, 194 150.143 C 194.825 149.947, 198.329 149.426, 201.786 148.986 C 205.243 148.545, 208.740 147.630, 209.557 146.953 C 210.847 145.882, 218 131.968, 218 130.528 C 218 129.506, 214.467 130.097, 211.500 131.616 M 182.328 145.282 C 180.033 146.502, 176.266 149.204, 173.956 151.287 C 169.893 154.949, 169.537 155.065, 163.128 154.824 C 159.482 154.687, 152.450 155.382, 147.500 156.368 C 142.550 157.355, 137.488 158.360, 136.250 158.600 C 132.626 159.305, 133.581 160.488, 140.691 164.100 C 146.979 167.296, 148.082 167.520, 159.031 167.830 C 172.344 168.207, 176.183 167.157, 180.069 162.074 C 181.406 160.325, 183.970 157.168, 185.767 155.057 C 188.027 152.403, 189.106 150.041, 189.267 147.398 C 189.555 142.668, 188.087 142.221, 182.328 145.282" stroke="none" fill="#f2d5cf" fill-rule="evenodd"/><path d="M 163.452 12.692 C 156.316 15.099, 143.656 21.496, 140.579 24.250 C 139.503 25.212, 138.033 26, 137.311 26 C 136.590 26, 136 26.450, 136 27 C 136 28.720, 133.235 28.099, 129.444 25.526 C 127.439 24.166, 124.285 22.769, 122.436 22.422 C 117.679 21.530, 108.803 24.566, 101.130 29.711 C 97.613 32.070, 94.634 34, 94.510 34 C 94.045 34, 84.446 43.935, 83.226 45.679 C 76.887 54.743, 72.265 70.134, 71.717 84 C 71.507 89.326, 70.288 92, 68.071 92 C 67.482 92, 67 92.675, 67 93.500 C 67 94.325, 66.355 95, 65.567 95 C 64.779 95, 63.849 95.900, 63.500 97 C 63.151 98.100, 62.446 99, 61.933 99 C 61.420 99, 60.992 100.013, 60.982 101.250 C 60.973 102.487, 59.668 107.609, 58.083 112.630 C 53.961 125.687, 52.583 137.653, 54.005 148.036 C 55.220 156.909, 58.736 169.086, 62.621 177.869 C 63.929 180.828, 65 183.582, 65 183.988 C 65 184.395, 63.087 186.027, 60.750 187.614 C 55.933 190.885, 54 192.569, 54 193.495 C 54 193.846, 52.837 195.658, 51.416 197.521 C 47.216 203.027, 43.721 214.620, 44.638 220 C 45.060 222.475, 45.444 224.950, 45.492 225.500 C 45.763 228.662, 51.524 238.646, 55.578 242.980 C 61.347 249.148, 72.898 255.188, 82.323 256.967 C 85.995 257.660, 89 258.630, 89 259.124 C 89 259.618, 87.254 265.084, 85.121 271.271 C 82.987 277.459, 80.215 287.119, 78.960 292.739 L 76.679 302.957 78.875 310.516 C 81.181 318.451, 81.049 320, 78.063 320 C 77.063 320, 75.691 320.668, 75.014 321.483 C 73.990 322.717, 74.264 323.152, 76.641 324.065 C 83.159 326.570, 108.917 327.283, 114.359 325.109 C 116.735 324.160, 117.010 323.716, 115.986 322.483 C 115.309 321.668, 114.102 321, 113.304 321 C 110.846 321, 112.325 317.666, 115.507 316.034 C 117.153 315.190, 118.725 314.245, 119 313.934 C 120.170 312.609, 128.945 307, 129.847 307 C 130.389 307, 130.983 306.584, 131.167 306.076 C 131.611 304.845, 145.176 295.008, 146.479 294.972 C 147.040 294.957, 148.813 293.607, 150.417 291.972 C 152.021 290.337, 153.740 289, 154.238 289 C 154.736 289, 155.818 288.325, 156.643 287.500 C 157.468 286.675, 158.685 286, 159.347 286 C 160.009 286, 165.040 290.394, 170.526 295.765 C 176.012 301.136, 181.738 306.162, 183.250 306.934 C 184.762 307.706, 186 308.712, 186 309.169 C 186 309.626, 186.643 310, 187.429 310 C 188.214 310, 189.478 310.621, 190.237 311.380 C 190.996 312.139, 194.965 314.224, 199.058 316.013 C 203.151 317.803, 206.775 319.695, 207.112 320.219 C 207.448 320.742, 208.024 321.083, 208.390 320.976 C 210.063 320.488, 213 321.956, 213 323.281 C 213 324.802, 207.533 326.447, 205.878 325.424 C 204.805 324.762, 197.620 326.954, 198.379 327.712 C 198.661 327.995, 201.729 328.842, 205.196 329.595 C 213.255 331.345, 246.606 330.589, 261 328.330 C 267.634 327.289, 269.773 327.392, 284.500 329.460 C 305.321 332.383, 318.935 333.338, 339.500 333.315 C 358.379 333.295, 365.473 332.827, 373.113 331.097 C 375.650 330.523, 379.475 329.758, 381.613 329.396 C 386.475 328.575, 404.680 328.630, 412 329.489 C 415.025 329.844, 425.600 330.380, 435.500 330.681 C 452.151 331.186, 453.872 331.416, 458.463 333.738 C 462.730 335.897, 464.273 336.164, 469.463 335.644 C 472.783 335.311, 479.100 333.871, 483.500 332.445 C 490.844 330.064, 491.986 329.947, 497.431 331.012 C 500.693 331.650, 505.643 333.077, 508.431 334.182 C 514.760 336.692, 522.942 336.844, 529.763 334.579 C 534.716 332.934, 535.279 332.932, 540.151 334.550 C 544.143 335.876, 546.787 336.091, 551.901 335.507 C 555.530 335.093, 559.625 334.634, 561 334.488 C 562.375 334.341, 565.469 333.880, 567.875 333.463 C 572.137 332.724, 572.189 332.670, 569.875 331.388 C 568.569 330.663, 566.662 330.055, 565.639 330.035 C 564.044 330.005, 563.875 329.480, 564.457 326.377 C 564.831 324.384, 565.514 322.022, 565.974 321.127 C 570.095 313.120, 572.140 306.537, 571.554 303.163 C 570.105 294.810, 565.063 286.204, 559.363 282.355 C 557.238 280.920, 555.275 279.448, 555 279.084 C 554.481 278.396, 542.676 273, 541.690 273 C 541.382 273, 539.863 272.490, 538.315 271.866 C 536.767 271.242, 534.150 270.565, 532.500 270.361 C 530.850 270.157, 528.262 269.566, 526.749 269.047 C 521.593 267.278, 496.519 268.650, 483.500 271.412 C 476.900 272.813, 471.213 273.968, 470.863 273.979 C 470.512 273.991, 470.051 270.906, 469.837 267.124 C 469.482 260.832, 469.177 260.020, 466.243 257.551 C 464.207 255.838, 462.662 253.330, 462.007 250.677 C 459.606 240.949, 458.863 239.153, 455.998 236.155 C 454.339 234.420, 452.537 233, 451.991 233 C 451.446 233, 451 232.550, 451 232 C 451 231.450, 450.325 231, 449.500 231 C 448.675 231, 448 230.639, 448 230.197 C 448 229.250, 438.715 226.857, 434.717 226.774 C 431.388 226.705, 428.444 223.053, 427.648 218.005 C 427.349 216.104, 426.405 214.038, 425.552 213.414 C 424.698 212.790, 424 211.767, 424 211.140 C 424 210.513, 423.550 210, 423 210 C 422.450 210, 422 209.510, 422 208.910 C 422 207.368, 416.759 202, 415.253 202 C 414.564 202, 414 201.567, 414 201.039 C 414 200.510, 412.219 199.598, 410.042 199.011 C 407.865 198.425, 405.809 197.501, 405.473 196.957 C 405.137 196.412, 404.443 196.226, 403.931 196.543 C 403.419 196.859, 402.445 196.775, 401.768 196.356 C 399.914 195.211, 397.488 195.015, 386 195.084 C 374.865 195.152, 372.573 195.312, 367 196.414 C 365.075 196.794, 362.375 197.247, 361 197.421 C 359.625 197.594, 357.734 198.060, 356.798 198.456 C 355.862 198.853, 354.655 198.905, 354.117 198.572 C 353.579 198.240, 352.887 198.374, 352.580 198.870 C 351.820 200.101, 345.333 201.240, 343.108 200.534 C 341.099 199.897, 338.657 195.365, 339.546 193.925 C 339.861 193.416, 339.677 193, 339.138 193 C 338.600 193, 337.871 191.688, 337.519 190.085 C 337.166 188.481, 335.781 185.894, 334.440 184.335 C 333.100 182.776, 332.002 181.047, 332.001 180.493 C 332.001 179.939, 330.425 178.041, 328.500 176.274 C 325.154 173.203, 323.878 170, 326 170 C 326.550 170, 327 168.950, 327 167.667 C 327 166.383, 327.300 165.033, 327.667 164.667 C 329.062 163.271, 328.188 157.306, 325.891 152.554 C 324.001 148.645, 322.485 147.087, 318.657 145.121 C 314.688 143.083, 313.473 142.848, 311.921 143.817 C 309.311 145.447, 305.442 145.299, 303.643 143.500 C 302.818 142.675, 301.661 142, 301.071 142 C 300.482 142, 300 141.605, 300 141.123 C 300 139.364, 290.347 140.885, 284.595 143.551 C 279.843 145.754, 278.333 146.065, 276.859 145.144 C 274.496 143.668, 268.802 143.678, 265.543 145.162 C 264.140 145.802, 262.814 146.139, 262.597 145.912 C 262.380 145.686, 261.914 141.675, 261.561 137 C 260.989 129.416, 260.569 126.024, 259.579 121 C 259.416 120.175, 258.737 118.150, 258.069 116.500 C 257.401 114.850, 256.592 112.150, 256.272 110.500 C 255.952 108.850, 254.860 106.427, 253.845 105.115 C 252.830 103.803, 252 102.153, 252 101.448 C 252 100.743, 251.646 100.017, 251.214 99.833 C 250.782 99.650, 249.418 98.062, 248.184 96.304 C 246.123 93.368, 245.802 89.748, 247.376 87.200 C 248.045 86.118, 245.978 80.141, 243.769 76.770 C 238.838 69.244, 233.334 66.577, 223.399 66.898 C 219.038 67.040, 216.802 66.659, 215.737 65.594 C 214.910 64.767, 211.143 62.408, 207.367 60.351 C 203.590 58.295, 200.239 56.234, 199.920 55.772 C 199.601 55.310, 198.625 55.207, 197.751 55.542 C 196.877 55.878, 194.920 55.338, 193.401 54.343 C 191.883 53.349, 189.595 52.672, 188.317 52.840 C 184.881 53.290, 184.434 50.752, 186.334 41.584 C 188.280 32.195, 188.373 23.955, 186.590 19.016 C 185.658 16.434, 184.111 14.904, 180.613 13.104 C 174.647 10.034, 171.552 9.960, 163.452 12.692 M 158.500 16.234 C 151.198 18.854, 136 29.235, 136 31.604 C 136 32.430, 137.216 37.169, 138.703 42.135 L 141.406 51.164 145.081 43.204 C 149.063 34.581, 154.912 25.967, 161.346 19.250 C 165.701 14.703, 164.959 13.917, 158.500 16.234 M 168.519 21.225 C 166.448 23.576, 162.566 28.731, 159.893 32.681 C 154.529 40.605, 152.370 42.688, 153.472 38.875 C 153.850 37.569, 154.378 35.712, 154.647 34.750 C 154.915 33.788, 154.662 33, 154.084 33 C 152.618 33, 143.803 51.671, 144.186 53.965 C 144.483 55.742, 144.820 55.706, 150.500 53.284 C 159.009 49.657, 168.215 49.117, 174.457 51.878 C 177.095 53.045, 179.615 54, 180.056 54 C 180.920 54, 184 44.266, 184 41.537 C 184 40.625, 183.524 40.176, 182.939 40.537 C 182.205 40.991, 182.111 39.240, 182.633 34.846 C 183.655 26.255, 183.651 24.585, 182.610 24 C 182.121 23.725, 181.172 25.358, 180.501 27.630 C 179.831 29.901, 178.496 32.826, 177.536 34.130 L 175.790 36.500 176.389 33.500 C 177.969 25.581, 178.244 21, 177.139 21 C 176.513 21, 176 21.498, 176 22.106 C 176 22.714, 174.563 25.077, 172.807 27.356 C 171.051 29.635, 169.476 31.687, 169.307 31.917 C 169.138 32.146, 168.732 32.065, 168.403 31.737 C 168.075 31.409, 169.007 28.140, 170.474 24.474 C 171.941 20.807, 172.948 17.615, 172.712 17.379 C 172.477 17.143, 170.590 18.874, 168.519 21.225 M 106.078 29.048 C 94.577 35.338, 85.545 43.996, 80.910 53.177 C 76.389 62.132, 75.897 64.129, 75.113 76.729 C 74.468 87.102, 74.208 88.173, 71.707 90.784 C 70.218 92.338, 69 94.372, 69 95.305 C 69 97.290, 69.432 97.375, 72.151 95.919 C 73.262 95.324, 74.364 95.031, 74.599 95.266 C 74.835 95.501, 72.824 99.700, 70.131 104.597 C 67.438 109.494, 64.421 116.098, 63.427 119.274 C 61.647 124.960, 61.603 125.006, 60.501 122.310 C 59.686 120.317, 59.161 119.930, 58.569 120.888 C 57.365 122.836, 55.990 136.698, 56.665 140.075 C 57.405 143.774, 58.995 143.892, 59.015 140.250 C 59.048 134.368, 60.810 134.619, 61.398 140.590 C 62.733 154.144, 63.946 161.774, 65.488 166.313 C 67.615 172.576, 67.085 175.791, 64.674 171.250 C 62.527 167.206, 60.845 166.972, 61.964 170.873 C 63.186 175.134, 66.008 179.004, 67.865 178.967 C 68.764 178.949, 71.975 178.064, 75 177 C 82.016 174.532, 86.684 174.510, 90.647 176.926 C 95.039 179.605, 96.551 184.536, 94.983 191.073 C 94.324 193.820, 94.001 196.895, 94.265 197.907 C 94.639 199.335, 94.308 199.632, 92.785 199.234 C 91.201 198.819, 90.889 199.160, 91.162 201.008 C 91.348 202.266, 92.261 203.773, 93.192 204.356 C 94.538 205.200, 95.287 204.905, 96.850 202.917 C 97.932 201.542, 101.220 199.105, 104.158 197.501 C 113.495 192.404, 122.868 193.976, 126.640 201.271 C 128.034 203.967, 128.023 204.652, 126.515 208.599 C 125.601 210.993, 125.114 213.376, 125.434 213.893 C 125.754 214.410, 128.091 214.833, 130.628 214.833 C 134.101 214.833, 136.260 215.549, 139.370 217.733 C 141.642 219.328, 145.872 221.160, 148.772 221.804 C 155.390 223.274, 160.527 221.550, 169.937 214.703 C 176.669 209.804, 179.501 209.025, 174.123 213.550 C 170.315 216.754, 170.969 218.585, 175.150 216.423 C 179.170 214.344, 179.812 215.214, 176.303 217.983 C 174.047 219.763, 172.678 220.083, 169.294 219.622 C 166.734 219.274, 164.824 219.476, 164.414 220.138 C 164.045 220.737, 161.775 222.097, 159.371 223.160 C 155.171 225.018, 155 225.265, 155 229.466 C 155 235.727, 152.696 238.947, 143.824 245.084 C 136.729 249.992, 135.633 251.213, 132.132 258.097 C 130.007 262.276, 127.240 269.589, 125.983 274.347 C 124.726 279.106, 123.326 283, 122.874 283 C 120.975 283, 125.393 265.960, 129.101 258.980 C 132.531 252.523, 139.318 244.921, 143.654 242.679 C 145.331 241.812, 148.163 239.439, 149.948 237.407 C 152.623 234.360, 153.084 233.166, 152.576 230.606 C 152.238 228.898, 150.957 226.731, 149.730 225.790 C 147.375 223.985, 139.755 222, 135.179 222 C 130.270 222, 119.410 225.581, 114.719 228.747 C 109.129 232.520, 109.464 231.132, 116.332 222.071 C 125.359 210.160, 126.998 203.933, 122.261 199.541 C 113.734 191.634, 102.301 198.213, 92.369 216.741 C 87.580 225.676, 85.818 227.246, 83.352 224.781 C 80.371 221.800, 81.276 215.503, 86.410 203.500 C 88.998 197.450, 91.370 190.207, 91.682 187.404 C 92.175 182.960, 91.952 182.033, 89.935 180.154 C 85.166 175.711, 74.525 178.221, 68.358 185.245 C 61.987 192.501, 58.881 200.069, 57.156 212.539 C 56.396 218.029, 56.265 218.263, 55.492 215.500 C 54.720 212.743, 55.150 209.890, 58.728 194 L 59.291 191.500 57.080 193.464 C 55.864 194.545, 53.226 198.820, 51.218 202.964 C 47.967 209.677, 47.564 211.374, 47.534 218.500 C 47.494 227.850, 49.812 233.670, 56.437 240.858 C 64.918 250.060, 74.489 254.547, 91 257.065 C 97.619 258.074, 100.802 258.864, 98.500 258.925 C 96.300 258.983, 93.988 259.361, 93.362 259.765 C 91.817 260.763, 87.218 271.757, 84.269 281.500 C 82.686 286.731, 81.655 293.163, 81.291 300.080 C 80.656 312.116, 81.781 317.155, 85.671 319.704 C 95.691 326.270, 123.945 311.789, 159.844 281.689 C 168.780 274.196, 172.579 271.995, 167.765 277.098 C 161.500 283.741, 161.564 283.579, 163.913 286.877 C 165.082 288.519, 167.940 291.356, 170.265 293.181 L 174.492 296.500 170.085 291.245 C 163.296 283.149, 166.160 283.723, 174.780 292.186 C 182.400 299.667, 191.144 306.276, 195.068 307.522 C 196.425 307.952, 196.902 308.734, 196.527 309.916 C 194.988 314.763, 240.609 329.580, 246.616 326.184 C 248.239 325.267, 247.912 325.025, 244.250 324.432 C 237.657 323.365, 239.234 322, 247.059 322 C 251.510 322, 253.890 321.631, 253.500 321 C 253.160 320.450, 251.221 319.928, 249.191 319.840 L 245.500 319.680 248.830 319.271 C 251.214 318.978, 252.005 318.455, 251.612 317.431 C 250.870 315.497, 251.578 315.628, 254.824 318.028 C 257.945 320.336, 265 321.850, 265 320.212 C 265 319.635, 263.401 318.175, 261.447 316.967 C 259.493 315.760, 258.093 314.574, 258.335 314.332 C 258.577 314.090, 260.288 314.824, 262.137 315.962 C 269.357 320.405, 289.960 325.723, 311 328.575 C 327.123 330.760, 364.205 331.045, 371.363 329.039 C 383.452 325.652, 382.955 312.571, 369.561 281.659 C 367.409 276.691, 369.231 277.832, 372.583 283.552 C 374.017 285.998, 375.597 288, 376.095 288 C 376.593 288, 377 286.163, 377 283.917 C 377 281.090, 377.385 279.964, 378.250 280.259 C 379.635 280.730, 379.825 286.463, 378.638 292 C 378.118 294.426, 378.314 296.077, 379.277 297.381 C 380.595 299.167, 380.979 299.009, 386.896 294.241 C 390.323 291.479, 395.461 288.336, 398.314 287.255 C 402.962 285.495, 403.534 284.951, 403.824 282.003 C 404.288 277.294, 397.024 248.403, 394.768 245.981 C 393.361 244.471, 391.617 244, 387.429 244 C 380.665 244, 376.734 245.663, 371.316 250.818 L 367.131 254.799 356.316 255.458 C 344.762 256.162, 339.937 256.659, 339.606 257.178 C 339.492 257.355, 338.269 260.425, 336.887 264 C 335.505 267.575, 332.209 273.786, 329.562 277.803 L 324.750 285.105 326.746 287.303 C 327.843 288.511, 329.362 290.810, 330.121 292.410 L 331.500 295.320 340.250 295.098 C 348.419 294.891, 351.396 295.866, 347.343 297.422 C 343.923 298.734, 321.369 299.237, 314.500 298.154 C 305.532 296.740, 298.001 294.490, 295.483 292.472 C 293.596 290.961, 293.669 290.911, 297 291.451 C 298.925 291.762, 303.450 292.293, 307.056 292.629 C 313.294 293.211, 313.760 293.102, 316.640 290.371 C 325.575 281.897, 335.528 259.608, 339.096 240.081 C 341.415 227.388, 341.510 217.741, 339.415 207.357 C 337.604 198.378, 330.616 182.942, 326.243 178.260 C 323.423 175.241, 323.064 175.137, 317.402 175.706 C 312.199 176.229, 311.128 176.730, 308.357 179.933 C 303.237 185.854, 290.362 188.820, 287.796 184.671 C 287.344 183.939, 284.155 183.500, 279.286 183.500 C 272.635 183.500, 270.960 183.136, 267.796 181 C 265.759 179.625, 263.143 176.811, 261.981 174.747 C 260.131 171.459, 259.537 171.078, 257.185 171.665 C 250.326 173.378, 227.355 186.833, 220.254 193.297 C 216.478 196.734, 216.609 194.419, 220.420 190.379 C 224.976 185.549, 224.984 184.222, 220.443 186.901 C 216.501 189.227, 216 189.372, 216 188.186 C 216 187.738, 217.940 185.918, 220.310 184.142 C 222.681 182.366, 225.425 179.551, 226.408 177.887 C 228.633 174.120, 229.709 174.873, 228 179 C 226.551 182.499, 227.303 183.911, 229.795 182.371 C 230.733 181.792, 234.200 179.862, 237.500 178.084 C 244.053 174.552, 250 168.724, 250 165.833 C 250 163.095, 248.413 163.611, 245.876 167.174 C 242.600 171.775, 242.432 169.050, 245.616 162.960 C 248.102 158.206, 248.458 157.906, 249.661 159.551 C 250.880 161.218, 251.064 161.114, 252.088 158.178 C 253.312 154.667, 254.456 154.139, 255.417 156.643 C 256.412 159.236, 257.137 157.639, 258.435 150.001 C 259.568 143.329, 258.894 139.935, 257.034 142.945 C 256.201 144.293, 255 136.991, 255 130.578 C 255 128.300, 254.423 124.200, 253.718 121.468 C 252.852 118.108, 252.742 115.640, 253.379 113.844 C 254.029 112.009, 253.924 110.230, 253.039 108.094 C 251.609 104.643, 250.319 104.106, 249.810 106.750 C 249.558 108.055, 248.870 107.525, 247.100 104.661 C 245.413 101.933, 244.497 101.196, 243.930 102.114 C 243.491 102.824, 243.405 103.876, 243.738 104.452 C 244.071 105.029, 243.366 104.643, 242.172 103.595 C 240.977 102.547, 240 101.546, 240 101.371 C 240 101.195, 241.365 100.346, 243.033 99.483 C 246.576 97.651, 246.113 95.917, 242.211 96.404 C 240.720 96.590, 240.024 96.549, 240.664 96.314 C 242.208 95.747, 245 88.652, 245 85.295 C 245 81.054, 241.347 74.715, 237.338 72 C 232.245 68.551, 223.922 68.486, 219.195 71.857 C 215.637 74.395, 211 80.988, 211 83.509 C 211 84.360, 212.381 87.792, 214.068 91.135 C 218.420 99.756, 221.126 110.988, 221.262 121 C 221.411 131.946, 219.308 138.329, 213.377 144.925 C 209.008 149.785, 208.936 149.973, 210.519 152.388 C 212.316 155.131, 211.618 157.449, 207.704 161.746 C 206.579 162.981, 205.927 164.260, 206.254 164.587 C 207.648 165.981, 220.584 165.312, 223.686 163.686 C 227.694 161.584, 235.278 151.807, 238.755 144.260 C 245.070 130.555, 241.616 111.987, 230.552 100.159 C 228.048 97.482, 226 95.080, 226 94.819 C 226 94.559, 227.350 94.545, 229 94.787 C 232.430 95.290, 232.963 93.722, 230.345 90.829 C 228.850 89.177, 228.845 89, 230.288 89 C 231.167 89, 232.580 89.990, 233.427 91.200 C 234.786 93.139, 234.795 93.664, 233.505 95.632 C 232.153 97.696, 232.332 98.344, 235.867 104.183 C 244.286 118.087, 246.484 132.246, 241.910 143.095 C 236.586 155.722, 226.756 167.392, 220.446 168.576 C 218.551 168.932, 214.853 168.518, 211.680 167.595 C 208.662 166.718, 205.498 166, 204.650 166 C 203.801 166, 201.491 168.435, 199.516 171.411 C 188.898 187.407, 164.755 197.802, 144.795 194.971 C 135.176 193.607, 124.099 189.616, 119.609 185.897 C 118.999 185.392, 117.295 184.076, 115.822 182.973 C 111.809 179.968, 105.346 169.701, 103.525 163.437 C 102.640 160.393, 101.647 155.022, 101.318 151.502 C 100.802 145.982, 100.430 145.061, 98.610 144.801 C 95.619 144.374, 95.277 139.964, 98.042 137.462 L 100.179 135.528 99.478 139.264 C 98.681 143.511, 100.017 144.242, 102.388 140.856 C 103.772 138.881, 103.891 139.426, 103.904 147.766 C 103.915 154.125, 104.495 158.458, 105.855 162.327 C 116.583 192.850, 159.435 201.980, 188.448 179.925 C 193.740 175.903, 199.584 169.251, 198.649 168.315 C 198.348 168.015, 196.662 168.271, 194.902 168.884 C 190.092 170.561, 186.142 170.237, 182.856 167.898 L 179.904 165.795 174.702 168.122 C 170.342 170.072, 167.800 170.453, 159 170.475 C 148.930 170.499, 148.193 170.351, 141 166.849 C 127.005 160.037, 115.900 148.304, 108.286 132.286 C 102.901 120.955, 100.314 118.631, 93.780 119.252 C 87.747 119.825, 82.927 123.090, 78.331 129.717 C 69.487 142.468, 74.832 154.725, 88.248 152.458 C 91.994 151.825, 92.312 151.919, 91.155 153.314 C 90.440 154.175, 88.910 155.019, 87.756 155.190 C 86.601 155.360, 85.449 156.130, 85.195 156.899 C 84.826 158.019, 85.588 158.162, 89.019 157.613 C 92.801 157.008, 93.155 157.108, 92.030 158.464 C 90.102 160.787, 86.886 160.248, 83.038 156.959 C 78.960 153.474, 74.703 152.929, 75.187 155.955 C 75.634 158.749, 73.735 158.706, 72.195 155.888 C 70.385 152.574, 71.399 140.598, 74.063 133.839 C 78.693 122.095, 87.346 115.513, 97.301 116.165 L 102.427 116.500 101.963 111.500 C 101.709 108.750, 101.624 101.888, 101.776 96.250 C 102.036 86.548, 101.943 86, 100.035 86 C 98.830 86, 97.109 87.404, 95.759 89.488 C 94.517 91.406, 93.100 92.981, 92.610 92.988 C 92.106 92.995, 91.964 87.040, 92.282 79.250 C 93.109 59.005, 96.905 47.478, 107.462 33.153 C 110.034 29.662, 111.983 26.650, 111.793 26.459 C 111.602 26.269, 109.030 27.434, 106.078 29.048 M 203.003 31.250 C 201.192 32.487, 198.538 35.049, 197.105 36.943 C 194.649 40.190, 194.843 40.112, 200.500 35.577 C 208.256 29.359, 208.630 29, 207.348 29 C 206.769 29, 204.814 30.012, 203.003 31.250 M 111.168 40.250 C 108.437 44.788, 104.824 51.425, 103.139 55 C 100.234 61.164, 100.105 61.293, 100.625 57.500 C 100.927 55.300, 101.377 52.600, 101.624 51.500 C 102.763 46.430, 98.463 56.231, 96.828 62.432 C 94.853 69.920, 94.289 86, 96 86 C 96.550 86, 97 85.550, 97 85 C 97 84.450, 98.248 84, 99.773 84 C 101.872 84, 102.975 83.210, 104.312 80.750 C 106.561 76.615, 114.555 67.903, 118.627 65.152 C 122.788 62.340, 131.566 60.178, 136.400 60.773 L 140.301 61.254 139.650 58.002 C 139.293 56.213, 139 52.992, 139 50.844 C 139 46.781, 136.581 44.442, 135.010 46.984 C 134.513 47.787, 133.808 46.331, 133.105 43.053 C 131.175 34.054, 128 30.636, 128 37.557 C 128 42.124, 126.026 50, 124.881 50 C 124.397 50, 124 46.175, 124 41.500 C 124 36.825, 123.577 33, 123.060 33 C 122.543 33, 120.955 36.712, 119.530 41.250 C 118.106 45.788, 116.064 50.625, 114.992 52 C 112.436 55.281, 112.509 54.071, 115.479 43.949 C 119.796 29.235, 118.479 28.105, 111.168 40.250 M 211.500 36.048 C 202.975 40.319, 200 42.556, 200 44.695 C 200 45.804, 200.619 45.658, 202.635 44.073 C 204.084 42.933, 205.884 42, 206.635 42 C 207.386 42, 208 41.594, 208 41.098 C 208 40.602, 209.238 39.727, 210.750 39.155 C 212.262 38.583, 214.625 37.199, 216 36.080 C 219.291 33.401, 216.819 33.383, 211.500 36.048 M 219.500 42.063 C 216.750 43.140, 213.375 44.943, 212 46.071 L 209.500 48.120 212.535 46.646 C 214.204 45.835, 217.354 44.849, 219.535 44.454 C 224.514 43.553, 227.230 42.181, 226.469 40.950 C 225.701 39.707, 225.383 39.758, 219.500 42.063 M 154.882 53.319 C 149.131 55.472, 143.999 59.018, 144.011 60.832 C 144.018 61.801, 145.782 63.337, 148.224 64.500 C 150.535 65.600, 154.917 68.124, 157.963 70.108 C 175.893 81.792, 189.446 105.774, 191.609 129.646 C 191.979 133.721, 192.697 137.313, 193.206 137.627 C 194.236 138.264, 217.064 127.290, 218.258 125.583 C 219.202 124.234, 218.382 115.848, 216.342 106 C 212.941 89.583, 203.500 75.510, 186.430 61.415 C 177.233 53.820, 163.179 50.214, 154.882 53.319 M 183 54.922 C 183 56.351, 191.124 63.072, 194.718 64.617 C 202.373 67.907, 203.180 65.305, 195.750 61.289 C 192.344 59.448, 190.593 57.887, 190.766 56.846 C 190.924 55.893, 190.112 54.995, 188.766 54.634 C 185.452 53.747, 183 53.869, 183 54.922 M 123 65.302 C 121.075 65.905, 117.183 68.758, 114.351 71.641 C 107.196 78.924, 104.588 86.736, 104.715 100.500 C 104.832 113.082, 107.422 123.428, 113.477 135.500 C 115.980 140.489, 120.389 147.174, 123.369 150.500 C 128.664 156.410, 128.820 156.497, 133.709 156.296 C 142.590 155.932, 174.916 146.668, 187.250 140.953 C 190.519 139.439, 190.735 136.988, 188.585 125.838 C 183.114 97.467, 164.544 72.535, 143.715 65.594 C 138.320 63.797, 128.253 63.655, 123 65.302 M 212.290 67 C 212.919 69.407, 212.625 69.455, 209.557 67.446 C 206.504 65.445, 205.073 67.318, 207.557 70.063 C 209.868 72.617, 208.549 72.527, 204.827 69.877 C 202.509 68.226, 201.585 68.022, 200.673 68.959 C 199.769 69.888, 200.247 70.794, 202.750 72.905 C 204.537 74.412, 206 76.106, 206 76.668 C 206 77.789, 209.235 81, 210.364 81 C 210.752 81, 210.605 80.130, 210.035 79.066 C 208.601 76.386, 208.713 76.112, 211 76.710 C 212.166 77.015, 213 76.741, 213 76.052 C 213 75.402, 214.406 73.688, 216.125 72.241 L 219.250 69.611 216.375 67.311 C 212.836 64.479, 211.606 64.385, 212.290 67 M 229.154 75.438 C 229.345 76.355, 229.950 77.082, 230.500 77.053 C 231.984 76.974, 231.712 74.737, 230.154 74.218 C 229.313 73.938, 228.939 74.395, 229.154 75.438 M 36.750 80.130 C 31.830 81.985, 34.015 84, 40.945 84 C 43.025 84, 47.111 84.452, 50.025 85.005 C 52.939 85.557, 55.521 85.813, 55.761 85.572 C 56.520 84.813, 46.545 80.188, 42.945 79.629 C 41.050 79.335, 38.263 79.560, 36.750 80.130 M 217.639 79.694 C 216.513 80.820, 216.954 82, 218.500 82 C 219.325 82, 220 81.577, 220 81.059 C 220 79.798, 218.438 78.895, 217.639 79.694 M 237.543 81.931 C 236.803 83.128, 238.684 84.313, 240.016 83.490 C 241.135 82.799, 240.400 81, 239 81 C 238.515 81, 237.859 81.419, 237.543 81.931 M 33.792 88.426 C 32.618 89.017, 31.485 90.024, 31.274 90.665 C 30.790 92.135, 40.845 93.262, 50.500 92.820 L 57.500 92.500 50.500 90.168 C 42.429 87.479, 36.834 86.896, 33.792 88.426 M 35.009 97.607 C 25.127 100.262, 25.209 102.843, 35.103 100.569 C 38.621 99.760, 45.213 99.188, 49.751 99.299 C 54.289 99.410, 58.002 99.228, 58.001 98.897 C 58 98.248, 45.299 95.957, 42.307 96.066 C 41.313 96.102, 38.029 96.796, 35.009 97.607 M 76.457 101.685 C 74.223 103.920, 69.400 114.434, 68.630 118.750 C 67.714 123.883, 69.667 122.535, 71.529 116.750 C 72.459 113.862, 74.549 109.092, 76.175 106.149 C 79.301 100.490, 79.412 98.730, 76.457 101.685 M 77.058 109.137 C 75.930 110.987, 75.029 114.075, 75.056 116 C 75.100 119.217, 75.298 118.977, 77.504 113.035 C 80.231 105.689, 80.062 104.210, 77.058 109.137 M 83.684 109.382 C 83.308 110.362, 83.029 111.914, 83.063 112.832 C 83.105 113.937, 83.453 113.685, 84.092 112.086 C 84.623 110.758, 84.902 109.206, 84.712 108.636 C 84.522 108.067, 84.059 108.403, 83.684 109.382 M 251.491 125.897 C 251.771 129.415, 252 134.252, 252 136.647 C 252 139.041, 252.450 141, 253 141 C 254.583 141, 254.132 125.956, 252.446 122.500 C 251.037 119.611, 251.001 119.736, 251.491 125.897 M 247.684 128.608 C 247.998 131.848, 248.704 134.950, 249.254 135.500 C 249.920 136.167, 250.064 134.536, 249.684 130.608 C 249.371 127.367, 248.665 124.265, 248.115 123.715 C 247.448 123.048, 247.305 124.679, 247.684 128.608 M 94 125.583 C 94 126.454, 94.534 126.989, 95.188 126.771 C 97.042 126.153, 97.349 124, 95.583 124 C 94.713 124, 94 124.713, 94 125.583 M 212 130.953 C 208.388 132.877, 206.306 134.750, 203.149 138.912 C 201.889 140.573, 199.948 141.506, 196.910 141.912 C 192.519 142.497, 192.499 142.519, 192.186 146.883 C 191.887 151.052, 191.985 151.233, 194.186 150.576 C 195.459 150.196, 199.071 149.546, 202.214 149.131 C 205.356 148.715, 208.785 147.600, 209.832 146.652 C 212.296 144.422, 218.332 131.346, 217.511 130.018 C 216.675 128.665, 216.116 128.760, 212 130.953 M 83.543 130.931 C 82.803 132.128, 84.684 133.313, 86.016 132.490 C 87.135 131.799, 86.400 130, 85 130 C 84.515 130, 83.859 130.419, 83.543 130.931 M 65.581 143.750 C 64.930 146.843, 68.187 163.854, 69.969 166.670 C 71.436 168.989, 70.769 157.822, 68.838 147.750 C 67.451 140.515, 66.505 139.354, 65.581 143.750 M 78.667 142.667 C 77.516 143.817, 77.938 145, 79.500 145 C 80.325 145, 81 144.325, 81 143.500 C 81 141.938, 79.817 141.516, 78.667 142.667 M 181.543 145.597 C 178.816 146.997, 174.817 149.740, 172.655 151.693 C 168.894 155.091, 168.493 155.216, 163.313 154.607 C 159.876 154.203, 155.821 154.493, 152.201 155.402 C 149.065 156.188, 144.025 157.145, 141 157.528 C 134.115 158.398, 132.345 159.225, 134.187 160.709 C 141.133 166.306, 153.568 169.525, 164.796 168.631 C 173.781 167.916, 178.479 165.786, 181.449 161.081 C 182.702 159.095, 184.494 156.835, 185.430 156.058 C 189.731 152.488, 191.790 142.974, 188.250 143.026 C 187.287 143.040, 184.269 144.197, 181.543 145.597 M 290.230 144.028 C 284.320 144.875, 283.061 146.330, 285.247 149.785 C 292.182 160.744, 293.505 167.625, 290 174.500 C 287.126 180.137, 287.413 181.651, 291.617 183.038 C 303.650 187.010, 310.829 178.888, 309.769 162.500 C 308.850 148.299, 302.476 142.272, 290.230 144.028 M 268.024 146.105 C 263.590 147.042, 261.435 149.742, 260.080 156.061 C 259.486 158.833, 258.325 162.405, 257.500 164 C 256.675 165.596, 256 167.373, 256 167.950 C 256 169.754, 258.922 169.097, 260.232 167 C 262.020 164.137, 262.687 164.499, 263.456 168.750 C 264.382 173.866, 268.457 179.826, 271.562 180.605 C 276.368 181.811, 282.127 180.334, 285.407 177.055 C 288.204 174.258, 288.500 173.365, 288.495 167.731 C 288.492 162.942, 287.855 160.227, 285.742 156 C 281.623 147.756, 275.745 144.474, 268.024 146.105 M 309.033 146.750 C 309.051 147.162, 309.936 149.975, 311 153 C 312.255 156.567, 312.946 161.224, 312.967 166.250 L 313 174 315.750 173.964 C 326.976 173.817, 328.728 154.150, 318.051 148.149 C 314.341 146.064, 308.966 145.230, 309.033 146.750 M 199.718 152.092 C 192.018 153.905, 183 160.424, 183 164.177 C 183 170.769, 205.754 164.023, 209.226 156.402 C 210.254 154.148, 210.154 153.586, 208.519 152.390 C 206.400 150.841, 205.202 150.800, 199.718 152.092 M 241.578 162.250 L 238.838 167.500 241.919 164.234 C 243.614 162.438, 245 160.076, 245 158.984 C 245 157.893, 244.847 157, 244.659 157 C 244.471 157, 243.085 159.363, 241.578 162.250 M 369.678 199.076 C 365.926 199.588, 362.082 200.421, 361.137 200.927 C 357.074 203.101, 350 222.648, 350 231.701 C 350 234.224, 350.089 234.256, 354.750 233.398 C 357.363 232.918, 365.800 232.519, 373.500 232.512 C 388.645 232.499, 391.668 233.266, 395.180 238.015 C 398.598 242.637, 403.585 259.984, 406.478 277.312 C 407.269 282.052, 405.499 287.707, 402.974 288.508 C 400.258 289.370, 388.035 296.565, 384.595 299.327 L 381.690 301.659 382.698 311.850 C 383.253 317.455, 383.976 322.309, 384.304 322.637 C 386.290 324.624, 444.705 329.044, 450.327 327.633 C 452.621 327.057, 452.993 326.553, 452.430 324.781 C 451.867 323.007, 452.506 323.277, 456.058 326.318 C 460.820 330.394, 465.259 331.986, 471.884 331.994 C 479.028 332.004, 483.967 329.944, 489.783 324.531 L 495.201 319.487 499.860 324.146 C 503.382 327.668, 505.966 329.225, 510.451 330.529 C 517.465 332.568, 526.711 332.059, 532.458 329.319 C 536.610 327.339, 540 321.890, 540 317.196 C 540 313.928, 536.599 303.427, 534.863 301.335 C 534.232 300.574, 533.941 299.725, 534.218 299.449 C 534.779 298.888, 538.981 304.166, 540.985 307.948 C 543.127 311.991, 542.712 319.907, 540.073 325.355 C 537.124 331.441, 537.962 332.205, 547.110 331.767 C 555.054 331.387, 559.623 328.477, 562.898 321.711 C 566.606 314.052, 564.930 302, 559.290 295.768 C 558.280 294.652, 558.124 294, 558.867 294 C 560.075 294, 565.522 301.919, 566.557 305.179 C 567.436 307.948, 569 307.353, 568.999 304.250 C 568.998 299.549, 563.638 289.817, 558.396 284.999 C 549.894 277.182, 540.338 273.585, 523.378 271.817 C 502.732 269.665, 480.697 272.944, 450.760 282.622 C 444.745 284.566, 439.569 285.903, 439.258 285.592 C 438.710 285.043, 441.293 283.851, 449.420 280.901 C 451.577 280.118, 453.521 278.937, 453.741 278.276 C 454.458 276.127, 448.923 275.597, 444.171 277.358 C 441.705 278.272, 439.470 278.803, 439.205 278.538 C 438.940 278.273, 439.910 277.605, 441.361 277.053 C 442.813 276.501, 444 275.454, 444 274.727 C 444 274, 440.687 263.751, 436.639 251.953 C 419.139 200.955, 417.461 199.029, 390 198.437 C 382.575 198.277, 373.430 198.565, 369.678 199.076 M 88.015 206.677 C 88.045 208.295, 89.539 209.743, 91.961 210.500 C 94.363 211.250, 94.384 211.211, 92.842 208.884 C 91.298 206.555, 87.985 205.040, 88.015 206.677 M 136.442 211.936 C 138.023 213.683, 144 216.489, 144 215.484 C 144 214.822, 136.626 210, 135.613 210 C 135.105 210, 135.478 210.871, 136.442 211.936 M 83.975 216.565 C 81.953 221.883, 83.162 225.069, 86.169 222.347 C 88.049 220.646, 88.461 218.366, 87.393 215.582 C 86.497 213.248, 85.082 213.655, 83.975 216.565 M 122.571 216.886 C 122.182 217.514, 122.958 218.479, 124.370 219.123 C 127.237 220.429, 132.847 219.447, 131.308 217.908 C 129.777 216.377, 123.350 215.624, 122.571 216.886 M 433 229.628 C 433 230.257, 438.595 248.810, 443.751 265.280 C 446.121 272.849, 446.845 274.129, 449 274.564 C 450.375 274.842, 452.882 275.504, 454.571 276.035 C 463.072 278.707, 468 275.986, 468 268.622 C 468 263.589, 465.626 257.177, 463.454 256.344 C 462.525 255.988, 460.483 257.404, 457.986 260.138 L 454.001 264.500 456.488 260 C 462.749 248.675, 457.074 236.124, 443.230 230.679 C 439.019 229.023, 433 228.405, 433 229.628 M 374.994 234.311 C 374.716 234.605, 371.116 235.121, 366.994 235.459 C 362.872 235.797, 357.700 236.308, 355.500 236.595 C 353.300 236.881, 350.045 237.218, 348.267 237.343 C 345.038 237.571, 342.196 240.104, 341.921 243 C 341.843 243.825, 341.716 246.750, 341.639 249.500 C 341.481 255.185, 339.998 254.715, 354.500 253.577 C 366.198 252.660, 368.163 252.060, 371.702 248.325 C 372.913 247.046, 374.376 246, 374.952 246 C 375.529 246, 376 245.660, 376 245.244 C 376 243.715, 382.446 241.699, 387.646 241.601 C 393.378 241.493, 394.313 240.316, 391.556 236.680 C 390.525 235.318, 388.325 234.723, 382.838 234.318 C 378.802 234.021, 375.272 234.018, 374.994 234.311 M 173 286.237 C 173 288.932, 182.836 297.808, 189.214 300.869 C 192.633 302.510, 195.792 303.629, 196.234 303.355 C 196.677 303.082, 193.654 300.649, 189.518 297.948 C 185.381 295.248, 179.973 291.172, 177.498 288.892 C 174.698 286.310, 173 285.308, 173 286.237 M 180 286.873 C 180 289.919, 194.782 299.551, 196.627 297.707 C 197.065 297.269, 181.465 286, 180.420 286 C 180.189 286, 180 286.393, 180 286.873 M 187 286.932 C 187 288.298, 192.180 291.756, 195.460 292.579 C 199.355 293.557, 198.111 291.841, 192.571 288.595 C 187.726 285.755, 187 285.538, 187 286.932 M 320.217 289.250 C 319.177 290.515, 318.665 292.575, 318.882 294.622 C 318.949 295.264, 320.712 295.699, 323.007 295.639 C 327.898 295.510, 329.331 292.889, 326.137 289.913 C 323.764 287.702, 321.681 287.469, 320.217 289.250 M 220.658 305.676 C 219.809 306.524, 226.663 308.965, 229.950 308.985 C 233.241 309.005, 231.482 307.616, 226.384 306.169 C 221.563 304.800, 221.536 304.797, 220.658 305.676 M 215.942 308.814 C 218.875 311.197, 224.512 313, 229.033 313 C 233.607 313, 232.267 312.104, 224.304 309.837 C 212.608 306.509, 213.193 306.580, 215.942 308.814 M 209 309.458 C 209 311.528, 225.295 317.916, 230.750 317.984 C 233.367 318.017, 231.854 316.129, 228.750 315.488 C 224.176 314.544, 217.357 312.236, 213.972 310.485 C 211.126 309.014, 209 308.575, 209 309.458 M 203 310.388 C 203 310.602, 205.919 312.607, 209.488 314.844 C 216.272 319.098, 227.121 323, 232.164 323 C 236.825 323, 234.630 321.407, 228.044 320.009 C 224.735 319.307, 218.146 316.768, 213.401 314.366 C 205.406 310.320, 203 309.400, 203 310.388" stroke="none" fill="#2b2b3c" fill-rule="evenodd"/><path d="M 158.500 16.234 C 151.198 18.854, 136 29.235, 136 31.604 C 136 32.430, 137.216 37.169, 138.703 42.135 L 141.406 51.164 145.081 43.204 C 149.063 34.581, 154.912 25.967, 161.346 19.250 C 165.701 14.703, 164.959 13.917, 158.500 16.234 M 168.519 21.225 C 166.448 23.576, 162.566 28.731, 159.893 32.681 C 154.529 40.605, 152.370 42.688, 153.472 38.875 C 153.850 37.569, 154.378 35.712, 154.647 34.750 C 154.915 33.788, 154.662 33, 154.084 33 C 152.618 33, 143.803 51.671, 144.186 53.965 C 144.483 55.742, 144.820 55.706, 150.500 53.284 C 159.009 49.657, 168.215 49.117, 174.457 51.878 C 177.095 53.045, 179.615 54, 180.056 54 C 180.920 54, 184 44.266, 184 41.537 C 184 40.625, 183.524 40.176, 182.939 40.537 C 182.205 40.991, 182.111 39.240, 182.633 34.846 C 183.655 26.255, 183.651 24.585, 182.610 24 C 182.121 23.725, 181.172 25.358, 180.501 27.630 C 179.831 29.901, 178.496 32.826, 177.536 34.130 L 175.790 36.500 176.389 33.500 C 177.969 25.581, 178.244 21, 177.139 21 C 176.513 21, 176 21.498, 176 22.106 C 176 22.714, 174.563 25.077, 172.807 27.356 C 171.051 29.635, 169.476 31.687, 169.307 31.917 C 169.138 32.146, 168.732 32.065, 168.403 31.737 C 168.075 31.409, 169.007 28.140, 170.474 24.474 C 171.941 20.807, 172.948 17.615, 172.712 17.379 C 172.477 17.143, 170.590 18.874, 168.519 21.225 M 106.078 29.048 C 94.577 35.338, 85.545 43.996, 80.910 53.177 C 76.389 62.132, 75.897 64.129, 75.113 76.729 C 74.468 87.102, 74.208 88.173, 71.707 90.784 C 70.218 92.338, 69 94.372, 69 95.305 C 69 97.290, 69.432 97.375, 72.151 95.919 C 73.262 95.324, 74.364 95.031, 74.599 95.266 C 74.835 95.501, 72.834 99.700, 70.153 104.597 C 67.473 109.494, 64.468 116.127, 63.475 119.337 C 61.683 125.135, 61.664 125.156, 60.527 122.374 C 59.695 120.340, 59.159 119.933, 58.569 120.888 C 57.365 122.836, 55.990 136.698, 56.665 140.075 C 57.405 143.774, 58.995 143.892, 59.015 140.250 C 59.024 138.738, 59.409 136.903, 59.872 136.173 C 60.863 134.609, 61.972 140.170, 61.989 146.792 C 62.002 152.016, 64.804 166.046, 66.162 167.690 C 66.702 168.344, 66.993 170.144, 66.809 171.690 L 66.473 174.500 64.711 171.250 C 62.518 167.206, 60.846 166.976, 61.964 170.873 C 63.186 175.134, 66.008 179.004, 67.865 178.967 C 68.764 178.949, 71.975 178.064, 75 177 C 82.016 174.532, 86.684 174.510, 90.647 176.926 C 95.039 179.605, 96.551 184.536, 94.983 191.073 C 94.324 193.820, 94.001 196.895, 94.265 197.907 C 94.639 199.335, 94.308 199.632, 92.785 199.234 C 91.201 198.819, 90.889 199.160, 91.162 201.008 C 91.348 202.266, 92.261 203.773, 93.192 204.356 C 94.538 205.200, 95.287 204.905, 96.850 202.917 C 97.932 201.542, 101.220 199.105, 104.158 197.501 C 113.495 192.404, 122.868 193.976, 126.640 201.271 C 128.034 203.967, 128.023 204.652, 126.515 208.599 C 125.601 210.993, 125.114 213.376, 125.434 213.893 C 125.754 214.410, 128.091 214.833, 130.628 214.833 C 134.101 214.833, 136.260 215.549, 139.370 217.733 C 141.642 219.328, 145.872 221.160, 148.772 221.804 C 155.390 223.274, 160.527 221.550, 169.937 214.703 C 176.669 209.804, 179.501 209.025, 174.123 213.550 C 170.315 216.754, 170.969 218.585, 175.150 216.423 C 179.170 214.344, 179.812 215.214, 176.303 217.983 C 174.047 219.763, 172.678 220.083, 169.294 219.622 C 166.734 219.274, 164.824 219.476, 164.414 220.138 C 164.045 220.737, 161.775 222.097, 159.371 223.160 C 155.171 225.018, 155 225.265, 155 229.466 C 155 235.727, 152.696 238.947, 143.824 245.084 C 136.729 249.992, 135.633 251.213, 132.132 258.097 C 130.007 262.276, 127.240 269.589, 125.983 274.347 C 124.726 279.106, 123.326 283, 122.874 283 C 120.975 283, 125.393 265.960, 129.101 258.980 C 132.531 252.523, 139.318 244.921, 143.654 242.679 C 145.331 241.812, 148.163 239.439, 149.948 237.407 C 152.623 234.360, 153.084 233.166, 152.576 230.606 C 152.238 228.898, 150.957 226.731, 149.730 225.790 C 147.375 223.985, 139.755 222, 135.179 222 C 130.270 222, 119.410 225.581, 114.719 228.747 C 109.129 232.520, 109.464 231.132, 116.332 222.071 C 125.359 210.160, 126.998 203.933, 122.261 199.541 C 113.734 191.634, 102.301 198.213, 92.369 216.741 C 87.580 225.676, 85.818 227.246, 83.352 224.781 C 80.371 221.800, 81.276 215.503, 86.410 203.500 C 88.998 197.450, 91.370 190.207, 91.682 187.404 C 92.175 182.960, 91.952 182.033, 89.935 180.154 C 85.166 175.711, 74.525 178.221, 68.358 185.245 C 61.987 192.501, 58.881 200.069, 57.156 212.539 C 56.396 218.029, 56.265 218.263, 55.492 215.500 C 54.720 212.743, 55.150 209.890, 58.728 194 L 59.291 191.500 57.080 193.464 C 55.864 194.545, 53.226 198.820, 51.218 202.964 C 47.967 209.677, 47.564 211.374, 47.534 218.500 C 47.494 227.850, 49.812 233.670, 56.437 240.858 C 64.918 250.060, 74.489 254.547, 91 257.065 C 97.619 258.074, 100.802 258.864, 98.500 258.925 C 96.300 258.983, 93.988 259.361, 93.362 259.765 C 91.820 260.761, 87.224 271.740, 84.264 281.500 C 81.039 292.129, 80.028 309.771, 82.328 315.256 C 88.365 329.652, 117.887 316.868, 159.844 281.689 C 168.780 274.196, 172.579 271.995, 167.765 277.098 C 161.500 283.741, 161.564 283.579, 163.913 286.877 C 165.082 288.519, 167.940 291.356, 170.265 293.181 L 174.492 296.500 170.085 291.245 C 167.661 288.354, 165.982 285.685, 166.354 285.313 C 167.039 284.628, 172.290 289.149, 176.840 294.340 C 179.971 297.912, 188.762 304.442, 193.449 306.677 C 195.956 307.873, 196.860 308.866, 196.492 310.024 C 194.985 314.775, 240.716 329.519, 246.616 326.184 C 248.239 325.267, 247.912 325.025, 244.250 324.432 C 237.657 323.365, 239.234 322, 247.059 322 C 251.510 322, 253.890 321.631, 253.500 321 C 253.160 320.450, 251.221 319.928, 249.191 319.840 L 245.500 319.680 248.830 319.271 C 251.214 318.978, 252.005 318.455, 251.612 317.431 C 250.870 315.497, 251.578 315.628, 254.824 318.028 C 257.945 320.336, 265 321.850, 265 320.212 C 265 319.635, 263.401 318.175, 261.447 316.967 C 259.493 315.760, 258.093 314.574, 258.335 314.332 C 258.577 314.090, 260.288 314.824, 262.137 315.962 C 269.357 320.405, 289.960 325.723, 311 328.575 C 327.123 330.760, 364.205 331.045, 371.363 329.039 C 383.452 325.652, 382.955 312.571, 369.561 281.659 C 367.409 276.691, 369.231 277.832, 372.583 283.552 C 374.017 285.998, 375.597 288, 376.095 288 C 376.593 288, 377 286.163, 377 283.917 C 377 281.090, 377.385 279.964, 378.250 280.259 C 379.635 280.730, 379.825 286.463, 378.638 292 C 378.118 294.426, 378.314 296.077, 379.277 297.381 C 380.595 299.167, 380.979 299.009, 386.896 294.241 C 390.323 291.479, 395.461 288.336, 398.314 287.255 C 402.962 285.495, 403.534 284.951, 403.824 282.003 C 404.288 277.294, 397.024 248.403, 394.768 245.981 C 393.361 244.471, 391.617 244, 387.429 244 C 380.665 244, 376.734 245.663, 371.316 250.818 L 367.131 254.799 356.316 255.458 C 344.762 256.162, 339.937 256.659, 339.606 257.178 C 339.492 257.355, 338.269 260.425, 336.887 264 C 335.505 267.575, 332.209 273.786, 329.562 277.803 L 324.750 285.105 326.746 287.303 C 327.843 288.511, 329.362 290.810, 330.121 292.410 L 331.500 295.320 340.250 295.098 C 348.419 294.891, 351.396 295.866, 347.343 297.422 C 343.923 298.734, 321.369 299.237, 314.500 298.154 C 305.532 296.740, 298.001 294.490, 295.483 292.472 C 293.596 290.961, 293.669 290.911, 297 291.451 C 298.925 291.762, 303.450 292.293, 307.056 292.629 C 313.294 293.211, 313.760 293.102, 316.640 290.371 C 325.575 281.897, 335.528 259.608, 339.096 240.081 C 341.415 227.388, 341.510 217.741, 339.415 207.357 C 337.604 198.378, 330.616 182.942, 326.243 178.260 C 323.423 175.241, 323.064 175.137, 317.402 175.706 C 312.199 176.229, 311.128 176.730, 308.357 179.933 C 303.237 185.854, 290.362 188.820, 287.796 184.671 C 287.344 183.939, 284.155 183.500, 279.286 183.500 C 272.635 183.500, 270.960 183.136, 267.796 181 C 265.759 179.625, 263.143 176.811, 261.981 174.747 C 260.131 171.459, 259.537 171.078, 257.185 171.665 C 250.326 173.378, 227.355 186.833, 220.254 193.297 C 216.478 196.734, 216.609 194.419, 220.420 190.379 C 224.976 185.549, 224.984 184.222, 220.443 186.901 C 216.501 189.227, 216 189.372, 216 188.186 C 216 187.738, 217.940 185.918, 220.310 184.142 C 222.681 182.366, 225.425 179.551, 226.408 177.887 C 228.633 174.120, 229.709 174.873, 228 179 C 226.551 182.499, 227.303 183.911, 229.795 182.371 C 230.733 181.792, 234.200 179.862, 237.500 178.084 C 244.053 174.552, 250 168.724, 250 165.833 C 250 163.095, 248.413 163.611, 245.876 167.174 C 242.600 171.775, 242.432 169.050, 245.616 162.960 C 248.102 158.206, 248.458 157.906, 249.661 159.551 C 250.880 161.218, 251.064 161.114, 252.088 158.178 C 253.312 154.667, 254.456 154.139, 255.417 156.643 C 256.412 159.236, 257.137 157.639, 258.435 150.001 C 259.568 143.329, 258.894 139.935, 257.034 142.945 C 256.201 144.293, 255 136.991, 255 130.578 C 255 128.300, 254.423 124.200, 253.718 121.468 C 252.852 118.108, 252.742 115.640, 253.379 113.844 C 254.029 112.009, 253.924 110.230, 253.039 108.094 C 251.609 104.643, 250.319 104.106, 249.810 106.750 C 249.558 108.055, 248.870 107.525, 247.100 104.661 C 245.413 101.933, 244.497 101.196, 243.930 102.114 C 243.491 102.824, 243.405 103.876, 243.738 104.452 C 244.071 105.029, 243.366 104.643, 242.172 103.595 C 240.977 102.547, 240 101.546, 240 101.371 C 240 101.195, 241.365 100.346, 243.033 99.483 C 246.576 97.651, 246.113 95.917, 242.211 96.404 C 240.720 96.590, 240.024 96.549, 240.665 96.314 C 241.306 96.079, 242.071 95.256, 242.367 94.486 C 242.798 93.364, 242.392 93.281, 240.320 94.068 C 238.899 94.609, 236.967 94.807, 236.028 94.509 C 234.904 94.152, 233.984 94.721, 233.337 96.172 C 232.536 97.966, 233.036 99.505, 236.022 104.438 C 244.283 118.085, 246.452 132.323, 241.910 143.095 C 236.586 155.722, 226.756 167.392, 220.446 168.576 C 218.551 168.932, 214.853 168.518, 211.680 167.595 C 208.662 166.718, 205.498 166, 204.650 166 C 203.801 166, 201.491 168.435, 199.516 171.411 C 188.898 187.407, 164.755 197.802, 144.795 194.971 C 135.176 193.607, 124.099 189.616, 119.609 185.897 C 118.999 185.392, 117.289 184.072, 115.810 182.964 C 111.862 180.007, 104.582 168.260, 103.136 162.512 C 102.445 159.768, 101.617 154.706, 101.296 151.262 C 100.622 144.046, 99.288 143.315, 95.347 148 C 93.958 149.650, 92.075 151.007, 91.161 151.015 C 89.906 151.027, 89.817 151.232, 90.797 151.854 C 91.860 152.528, 91.860 152.867, 90.797 153.731 C 90.084 154.310, 88.637 154.946, 87.583 155.142 C 86.528 155.339, 85.456 156.130, 85.200 156.899 C 84.827 158.020, 85.587 158.162, 89.019 157.613 C 92.801 157.008, 93.155 157.108, 92.030 158.464 C 90.102 160.787, 86.886 160.248, 83.038 156.959 C 78.960 153.474, 74.703 152.929, 75.187 155.955 C 75.634 158.749, 73.735 158.706, 72.195 155.888 C 70.385 152.574, 71.399 140.598, 74.063 133.839 C 78.693 122.095, 87.346 115.513, 97.301 116.165 L 102.427 116.500 101.963 111.500 C 101.709 108.750, 101.624 101.888, 101.776 96.250 C 102.036 86.548, 101.943 86, 100.035 86 C 98.830 86, 97.109 87.404, 95.759 89.488 C 94.517 91.406, 93.100 92.981, 92.610 92.988 C 92.106 92.995, 91.964 87.040, 92.282 79.250 C 93.109 59.005, 96.905 47.478, 107.462 33.153 C 110.034 29.662, 111.983 26.650, 111.793 26.459 C 111.602 26.269, 109.030 27.434, 106.078 29.048 M 110.028 42.196 C 106.713 47.805, 104 52.969, 104 53.672 C 104 54.376, 103.091 56.425, 101.980 58.226 L 99.961 61.500 100.400 57.791 C 100.641 55.752, 101.117 53.052, 101.456 51.791 C 101.920 50.068, 101.649 50.244, 100.364 52.500 C 97.387 57.727, 95 68.934, 95 77.682 C 95 82.561, 95.413 86, 96 86 C 96.550 86, 97 85.550, 97 85 C 97 84.450, 98.248 84, 99.773 84 C 101.872 84, 102.975 83.210, 104.312 80.750 C 106.561 76.615, 114.555 67.903, 118.627 65.152 C 122.788 62.340, 131.566 60.178, 136.400 60.773 L 140.301 61.254 139.650 58.002 C 139.293 56.213, 139 52.992, 139 50.844 C 139 46.781, 136.581 44.442, 135.010 46.984 C 134.513 47.787, 133.808 46.331, 133.105 43.053 C 131.175 34.054, 128 30.636, 128 37.557 C 128 42.124, 126.026 50, 124.881 50 C 124.397 50, 124 46.175, 124 41.500 C 124 36.825, 123.577 33, 123.060 33 C 122.543 33, 120.955 36.712, 119.530 41.250 C 118.106 45.788, 116.064 50.625, 114.992 52 C 112.436 55.281, 112.509 54.071, 115.479 43.949 C 120.007 28.518, 118.418 28.007, 110.028 42.196 M 154.882 53.319 C 149.131 55.472, 143.999 59.018, 144.011 60.832 C 144.018 61.801, 145.782 63.337, 148.224 64.500 C 150.535 65.600, 154.917 68.124, 157.963 70.108 C 175.893 81.792, 189.446 105.774, 191.609 129.646 C 191.979 133.721, 192.697 137.313, 193.206 137.627 C 194.236 138.264, 217.064 127.290, 218.258 125.583 C 219.202 124.234, 218.382 115.848, 216.342 106 C 212.941 89.583, 203.500 75.510, 186.430 61.415 C 177.233 53.820, 163.179 50.214, 154.882 53.319 M 183 54.922 C 183 56.351, 191.124 63.072, 194.718 64.617 C 202.373 67.907, 203.180 65.305, 195.750 61.289 C 192.344 59.448, 190.593 57.887, 190.766 56.846 C 190.924 55.893, 190.112 54.995, 188.766 54.634 C 185.452 53.747, 183 53.869, 183 54.922 M 123 65.302 C 121.075 65.905, 117.183 68.758, 114.351 71.641 C 107.196 78.924, 104.588 86.736, 104.715 100.500 C 104.832 113.082, 107.422 123.428, 113.477 135.500 C 115.980 140.489, 120.389 147.174, 123.369 150.500 C 128.641 156.384, 128.839 156.496, 133.626 156.300 C 142.439 155.939, 175.053 146.605, 187.250 140.953 C 190.519 139.439, 190.735 136.988, 188.585 125.838 C 183.114 97.467, 164.544 72.535, 143.715 65.594 C 138.320 63.797, 128.253 63.655, 123 65.302 M 212.290 67 C 212.919 69.407, 212.625 69.455, 209.557 67.446 C 206.504 65.445, 205.073 67.318, 207.557 70.063 C 209.868 72.617, 208.549 72.527, 204.827 69.877 C 202.524 68.237, 201.579 68.025, 200.673 68.947 C 199.772 69.862, 200.192 70.739, 202.484 72.723 C 204.126 74.144, 205.926 76.202, 206.484 77.296 C 207.043 78.389, 208.611 80.008, 209.970 80.892 L 212.439 82.500 210.720 80.027 C 208.487 76.817, 208.550 76.070, 211 76.710 C 212.166 77.015, 213 76.741, 213 76.052 C 213 75.402, 214.406 73.688, 216.125 72.241 L 219.250 69.611 216.375 67.311 C 212.836 64.479, 211.606 64.385, 212.290 67 M 76.457 101.685 C 74.223 103.920, 69.400 114.434, 68.630 118.750 C 67.714 123.883, 69.667 122.535, 71.529 116.750 C 72.459 113.862, 74.549 109.092, 76.175 106.149 C 79.301 100.490, 79.412 98.730, 76.457 101.685 M 77.058 109.137 C 75.930 110.987, 75.029 114.075, 75.056 116 C 75.100 119.217, 75.298 118.977, 77.504 113.035 C 80.231 105.689, 80.062 104.210, 77.058 109.137 M 83.684 109.382 C 83.308 110.362, 83.029 111.914, 83.063 112.832 C 83.105 113.937, 83.453 113.685, 84.092 112.086 C 84.623 110.758, 84.902 109.206, 84.712 108.636 C 84.522 108.067, 84.059 108.403, 83.684 109.382 M 251.491 125.897 C 251.771 129.415, 252 134.252, 252 136.647 C 252 139.041, 252.450 141, 253 141 C 254.583 141, 254.132 125.956, 252.446 122.500 C 251.037 119.611, 251.001 119.736, 251.491 125.897 M 247.684 128.608 C 247.998 131.848, 248.704 134.950, 249.254 135.500 C 249.920 136.167, 250.064 134.536, 249.684 130.608 C 249.371 127.367, 248.665 124.265, 248.115 123.715 C 247.448 123.048, 247.305 124.679, 247.684 128.608 M 65.581 143.750 C 64.930 146.843, 68.187 163.854, 69.969 166.670 C 71.436 168.989, 70.769 157.822, 68.838 147.750 C 67.451 140.515, 66.505 139.354, 65.581 143.750 M 290.500 143.993 C 283.768 144.964, 282.209 147.209, 285.784 150.784 C 288.528 153.528, 292 162.431, 292 166.724 C 292 168.843, 291.100 172.342, 290 174.500 C 287.126 180.137, 287.413 181.651, 291.617 183.038 C 303.650 187.010, 310.829 178.888, 309.769 162.500 C 308.858 148.420, 302.453 142.268, 290.500 143.993 M 268.024 146.105 C 263.590 147.042, 261.435 149.742, 260.080 156.061 C 259.486 158.833, 258.325 162.405, 257.500 164 C 256.675 165.596, 256 167.373, 256 167.950 C 256 169.754, 258.922 169.097, 260.232 167 C 262.020 164.137, 262.687 164.499, 263.456 168.750 C 264.382 173.866, 268.457 179.826, 271.562 180.605 C 276.368 181.811, 282.127 180.334, 285.407 177.055 C 288.204 174.258, 288.500 173.365, 288.495 167.731 C 288.492 162.942, 287.855 160.227, 285.742 156 C 281.623 147.756, 275.745 144.474, 268.024 146.105 M 309.033 146.750 C 309.051 147.162, 309.936 149.975, 311 153 C 312.255 156.567, 312.946 161.224, 312.967 166.250 L 313 174 315.750 173.964 C 326.976 173.817, 328.728 154.150, 318.051 148.149 C 314.341 146.064, 308.966 145.230, 309.033 146.750 M 241.578 162.250 L 238.838 167.500 241.919 164.234 C 243.614 162.438, 245 160.076, 245 158.984 C 245 157.893, 244.847 157, 244.659 157 C 244.471 157, 243.085 159.363, 241.578 162.250 M 156.750 168.723 C 158.537 168.945, 161.463 168.945, 163.250 168.723 C 165.037 168.502, 163.575 168.320, 160 168.320 C 156.425 168.320, 154.963 168.502, 156.750 168.723 M 369.678 199.076 C 365.926 199.588, 362.082 200.421, 361.137 200.927 C 359.305 201.907, 353.482 212.830, 352.568 217 C 351.543 221.679, 350.869 225.493, 350.286 229.906 L 349.705 234.312 354.602 233.418 C 357.296 232.927, 365.800 232.519, 373.500 232.512 C 388.645 232.499, 391.668 233.266, 395.180 238.015 C 398.598 242.637, 403.585 259.984, 406.478 277.312 C 407.269 282.052, 405.499 287.707, 402.974 288.508 C 400.258 289.370, 388.035 296.565, 384.595 299.327 L 381.690 301.659 382.698 311.850 C 383.253 317.455, 383.976 322.309, 384.304 322.637 C 386.290 324.624, 444.705 329.044, 450.327 327.633 C 452.621 327.057, 452.993 326.553, 452.430 324.781 C 451.867 323.007, 452.506 323.277, 456.058 326.318 C 460.820 330.394, 465.259 331.986, 471.884 331.994 C 479.028 332.004, 483.967 329.944, 489.783 324.531 L 495.201 319.487 499.860 324.146 C 503.382 327.668, 505.966 329.225, 510.451 330.529 C 517.465 332.568, 526.711 332.059, 532.458 329.319 C 536.610 327.339, 540 321.890, 540 317.196 C 540 313.928, 536.599 303.427, 534.863 301.335 C 534.232 300.574, 533.941 299.725, 534.218 299.449 C 534.779 298.888, 538.981 304.166, 540.985 307.948 C 543.127 311.991, 542.712 319.907, 540.073 325.355 C 537.124 331.441, 537.962 332.205, 547.110 331.767 C 555.054 331.387, 559.623 328.477, 562.898 321.711 C 566.606 314.052, 564.930 302, 559.290 295.768 C 558.280 294.652, 558.124 294, 558.867 294 C 560.075 294, 565.522 301.919, 566.557 305.179 C 567.436 307.950, 569.001 307.352, 568.990 304.250 C 568.975 299.908, 564.360 291.111, 559.433 286.033 C 551.498 277.852, 540.796 273.633, 523.378 271.817 C 502.732 269.665, 480.697 272.944, 450.760 282.622 C 444.745 284.566, 439.569 285.903, 439.258 285.592 C 438.710 285.043, 441.293 283.851, 449.420 280.901 C 451.577 280.118, 453.521 278.937, 453.741 278.276 C 454.458 276.127, 448.923 275.597, 444.171 277.358 C 441.705 278.272, 439.470 278.803, 439.205 278.538 C 438.940 278.273, 439.910 277.605, 441.361 277.053 C 442.813 276.501, 444 275.454, 444 274.727 C 444 274, 440.687 263.751, 436.639 251.953 C 419.139 200.955, 417.461 199.029, 390 198.437 C 382.575 198.277, 373.430 198.565, 369.678 199.076 M 88.015 206.677 C 88.045 208.295, 89.539 209.743, 91.961 210.500 C 94.363 211.250, 94.384 211.211, 92.842 208.884 C 91.298 206.555, 87.985 205.040, 88.015 206.677 M 136.442 211.936 C 138.023 213.683, 144 216.489, 144 215.484 C 144 214.822, 136.626 210, 135.613 210 C 135.105 210, 135.478 210.871, 136.442 211.936 M 83.975 216.565 C 81.953 221.883, 83.162 225.069, 86.169 222.347 C 88.049 220.646, 88.461 218.366, 87.393 215.582 C 86.497 213.248, 85.082 213.655, 83.975 216.565 M 122.571 216.886 C 122.182 217.514, 122.958 218.479, 124.370 219.123 C 127.237 220.429, 132.847 219.447, 131.308 217.908 C 129.777 216.377, 123.350 215.624, 122.571 216.886 M 433 229.628 C 433 230.257, 438.595 248.810, 443.751 265.280 C 446.121 272.849, 446.845 274.129, 449 274.564 C 450.375 274.842, 452.882 275.504, 454.571 276.035 C 463.072 278.707, 468 275.986, 468 268.622 C 468 263.589, 465.626 257.177, 463.454 256.344 C 462.525 255.988, 460.483 257.404, 457.986 260.138 L 454.001 264.500 456.488 260 C 462.749 248.675, 457.074 236.124, 443.230 230.679 C 439.019 229.023, 433 228.405, 433 229.628 M 173 286.237 C 173 288.829, 182.520 297.524, 188.975 300.828 C 197.962 305.428, 198.292 303.676, 189.518 297.948 C 185.381 295.248, 179.973 291.172, 177.498 288.892 C 174.698 286.310, 173 285.308, 173 286.237 M 180 286.873 C 180 289.919, 194.782 299.551, 196.627 297.707 C 197.065 297.269, 181.465 286, 180.420 286 C 180.189 286, 180 286.393, 180 286.873 M 187 286.932 C 187 288.298, 192.180 291.756, 195.460 292.579 C 199.355 293.557, 198.111 291.841, 192.571 288.595 C 187.726 285.755, 187 285.538, 187 286.932 M 220.500 306 C 220.160 306.550, 220.809 307, 221.941 307 C 223.073 307, 224 307.362, 224 307.804 C 224 308.247, 225.912 308.721, 228.250 308.858 C 233.255 309.151, 232.363 307.866, 226.384 306.169 C 221.390 304.751, 221.274 304.747, 220.500 306 M 215.942 308.922 C 219.027 311.292, 224.735 313.024, 229.116 312.918 L 232.500 312.837 229.324 311.446 C 227.577 310.681, 224.703 309.800, 222.936 309.489 C 221.170 309.178, 218.916 308.490, 217.928 307.961 C 214.801 306.288, 213.398 306.966, 215.942 308.922 M 209 309.458 C 209 311.528, 225.295 317.916, 230.750 317.984 C 233.367 318.017, 231.854 316.129, 228.750 315.488 C 224.176 314.544, 217.357 312.236, 213.972 310.485 C 211.126 309.014, 209 308.575, 209 309.458 M 203 310.388 C 203 310.602, 205.919 312.607, 209.488 314.844 C 216.272 319.098, 227.121 323, 232.164 323 C 236.825 323, 234.630 321.407, 228.044 320.009 C 224.735 319.307, 218.146 316.768, 213.401 314.366 C 205.406 310.320, 203 309.400, 203 310.388" stroke="none" fill="#eb9f77" fill-rule="evenodd"/></svg>